PathFileType	4	(X/Y/Z)	OpenSim_Sub11_CSPreOp_Magnet.trc
DataRate	CameraRate	NumFrames	NumMarkers	Units	OrigDataRate	OrigDataStartFrame	OrigNumFrames
100	100	20	8	m	100	1	3701
Frame#	Time	torso_imu_offset_imu	pelvis_imu_offset_imu	tibia_r_imu_offset_imu	femur_r_imu_offset_imu	tibia_l_imu_offset_imu	femur_l_imu_offset_imu	toes_r_imu_offset_imu	toes_l_imu_offset_imu
				X1	Y1	Z1	X2	Y2	Z2	X3	Y3	Z3	X4	Y4	Z4	X5	Y5	Z5	X6	Y6	Z6	X7	Y7	Z7	X8		Y8	Z8	

1	0	-0.91967800	-0.24243200	-0.08544900	-0.56127900	0.16040000	-0.60961900	-0.62329100	-0.48803700	-0.31860400	-0.57763700	-0.60571300	-0.14111300	-0.70971700	0.41650400	0.19238300	-0.68237300	0.29345700	0.53344700	-0.62011700	-0.42773400	-0.45459000	-0.77514600	-0.05273400	-0.30444300
2	0.01000000	-0.92651400	-0.23803700	-0.08105500	-0.56518600	0.17456100	-0.60571300	-0.62304700	-0.49243200	-0.32519500	-0.57763700	-0.59252900	-0.13916000	-0.70776400	0.43188500	0.19091800	-0.68310500	0.30224600	0.53735400	-0.62207000	-0.41577100	-0.45141600	-0.77319300	-0.04199200	-0.30175800
3	0.02000000	-0.92431600	-0.24023400	-0.08105500	-0.55883800	0.16455100	-0.60400400	-0.62133800	-0.48388700	-0.31640600	-0.57275400	-0.59960900	-0.13696300	-0.70483400	0.42236300	0.19531200	-0.67822300	0.29711900	0.53808600	-0.61816400	-0.42285200	-0.45141600	-0.77124000	-0.04663100	-0.30175800
4	0.03000000	-0.92187500	-0.24462900	-0.08325200	-0.55786100	0.16528300	-0.60644500	-0.62329100	-0.48608400	-0.32080100	-0.57177700	-0.59985400	-0.13964800	-0.69751000	0.42309600	0.19262700	-0.67675800	0.29687500	0.53393600	-0.61547900	-0.42529300	-0.45507800	-0.76684600	-0.05029300	-0.30004900
5	0.04000000	-0.92211900	-0.24023400	-0.08105500	-0.56274400	0.16699200	-0.60913100	-0.62744100	-0.48608400	-0.31640600	-0.57470700	-0.59716800	-0.14111300	-0.70434600	0.42749000	0.19213900	-0.68212900	0.29956100	0.53442400	-0.61938500	-0.41918900	-0.45361300	-0.77172900	-0.04418900	-0.30395500
6	0.05000000	-0.91748000	-0.24438500	-0.08325200	-0.56591800	0.16333000	-0.60888700	-0.62524400	-0.48608400	-0.32080100	-0.57885700	-0.60400400	-0.13696300	-0.70654300	0.42041000	0.19409200	-0.68554700	0.29467800	0.53662100	-0.62280300	-0.42627000	-0.45410200	-0.77587900	-0.05053700	-0.30029300
7	0.06000000	-0.91992200	-0.24023400	-0.08789100	-0.56250000	0.16333000	-0.61669900	-0.62548800	-0.48388700	-0.32080100	-0.57592800	-0.59668000	-0.14770500	-0.70605500	0.42627000	0.18530300	-0.67797900	0.29858400	0.52954100	-0.61865200	-0.42236300	-0.45996100	-0.77124000	-0.04858400	-0.30786100
8	0.07000000	-0.92211900	-0.23584000	-0.08789100	-0.55590800	0.17089800	-0.60473600	-0.63134800	-0.49243200	-0.32055700	-0.57128900	-0.59204100	-0.13891600	-0.70141600	0.43139600	0.19384800	-0.67651400	0.30566400	0.53271500	-0.61547900	-0.41674800	-0.45336900	-0.76831100	-0.03808600	-0.29931600
9	0.08000000	-0.92651400	-0.24023400	-0.09008800	-0.55444300	0.16308600	-0.61157200	-0.62524400	-0.48803700	-0.32080100	-0.56762700	-0.60058600	-0.14209000	-0.69677700	0.42285200	0.18823200	-0.67553700	0.29516600	0.53149400	-0.61181600	-0.42480500	-0.45605500	-0.76440400	-0.04907200	-0.30395500
10	0.09000000	-0.92211900	-0.23803700	-0.09448200	-0.55053700	0.16723600	-0.60864300	-0.62329100	-0.48608400	-0.31860400	-0.56616200	-0.59668000	-0.13818400	-0.69384800	0.42871100	0.19213900	-0.67211900	0.30346700	0.53442400	-0.60791000	-0.41796900	-0.45410200	-0.76245100	-0.04418900	-0.30297900
11	0.10000000	-0.92211900	-0.24023400	-0.08569300	-0.56176800	0.16552700	-0.60937500	-0.61694300	-0.48803700	-0.32519500	-0.57592800	-0.59643600	-0.14086900	-0.70556600	0.42797900	0.18994100	-0.67993200	0.29907200	0.53222700	-0.61669900	-0.42358400	-0.45532200	-0.77026400	-0.04663100	-0.30127000
12	0.11000000	-0.92651400	-0.23364300	-0.07666000	-0.55639600	0.16748000	-0.60815400	-0.62524400	-0.48608400	-0.32763700	-0.56958000	-0.59521500	-0.13964800	-0.70166000	0.42895500	0.19287100	-0.67797900	0.30249000	0.53588900	-0.61767600	-0.42016600	-0.45459000	-0.76977500	-0.04370100	-0.30249000
13	0.12000000	-0.91748000	-0.24218800	-0.08325200	-0.55517600	0.16186500	-0.61645500	-0.62304700	-0.49243200	-0.32519500	-0.57128900	-0.59716800	-0.14599600	-0.69897500	0.42627000	0.18383800	-0.67749000	0.30297900	0.52563500	-0.61157200	-0.42236300	-0.46093800	-0.76489300	-0.04809600	-0.30932600
14	0.13000000	-0.92407200	-0.24243200	-0.09008800	-0.56494100	0.16357400	-0.60449200	-0.62085000	-0.49243200	-0.32275400	-0.57519500	-0.60156200	-0.13720700	-0.70678700	0.42334000	0.19360400	-0.68212900	0.29614300	0.53686500	-0.61840800	-0.42382800	-0.45117200	-0.77197300	-0.04956100	-0.29711900
15	0.14000000	-0.92431600	-0.24023400	-0.08325200	-0.55273400	0.16626000	-0.60986300	-0.62548800	-0.48388700	-0.32763700	-0.56567400	-0.60034200	-0.13891600	-0.69751000	0.42822300	0.19116200	-0.67236300	0.29834000	0.53125000	-0.61108400	-0.42236300	-0.45312500	-0.76367200	-0.04736300	-0.29980500
16	0.15000000	-0.92407200	-0.24243200	-0.09008800	-0.56103500	0.16870100	-0.61108400	-0.62329100	-0.48608400	-0.32299800	-0.57104500	-0.59448200	-0.13964800	-0.70068400	0.42968800	0.19116200	-0.67651400	0.30200200	0.53198200	-0.61621100	-0.41748000	-0.45922900	-0.76733400	-0.04492200	-0.30493200
17	0.16000000	-0.92651400	-0.23803700	-0.08105500	-0.56030300	0.16943400	-0.60668900	-0.62109400	-0.48803700	-0.32959000	-0.57373000	-0.59350600	-0.13964800	-0.70434600	0.43139600	0.19409200	-0.67822300	0.30468800	0.53540000	-0.61450200	-0.41723600	-0.45654300	-0.76928700	-0.04296900	-0.30395500
18	0.17000000	-0.92431600	-0.23584000	-0.09008800	-0.55786100	0.16845700	-0.61254900	-0.62109400	-0.49023400	-0.32080100	-0.57177700	-0.59106400	-0.14502000	-0.69946300	0.43139600	0.18579100	-0.67749000	0.30859400	0.52954100	-0.61450200	-0.41577100	-0.46044900	-0.76489300	-0.03979500	-0.30835000
19	0.18000000	-0.91967800	-0.24438500	-0.08789100	-0.55786100	0.16113300	-0.60644500	-0.62719700	-0.49023400	-0.32959000	-0.56982400	-0.60302700	-0.14086900	-0.69897500	0.42431600	0.19238300	-0.67919900	0.29760700	0.53418000	-0.61401400	-0.42553700	-0.45141600	-0.76635700	-0.04956100	-0.30371100
20	0.19000000	-0.91723600	-0.24877900	-0.09228500	-0.56054700	0.17236300	-0.61425800	-0.63354500	-0.49243200	-0.31835900	-0.57299800	-0.59350600	-0.14502000	-0.70068400	0.42944300	0.18481400	-0.67919900	0.30566400	0.52758800	-0.61377000	-0.41577100	-0.46044900	-0.76757800	-0.04028300	-0.30786100
